<svg width="457" height="222" viewBox="0 0 457 222" fill="none" xmlns="http://www.w3.org/2000/svg">
<path d="M68 75.0002V55.0002H115.5C120.233 54.6244 118.5 49.5002 118.5 49.5002C117 47.5002 109.471 42.2789 107 32.0002V27.0002C108.293 18.3244 111.055 15.516 119.5 14.0002H211V31.0002H183V75.0002H164V31.0002H134C132.5 31.0002 130 34.0005 132 35.5002C134 36.9998 145.491 50.4828 144 50.0002V57.5002C144.208 66.6892 142.001 70.8755 130 75.0002H68Z" fill="white"/>
<path d="M90.5 84.0005H68L86.5 145H103L113.5 116L122.5 145H139.5L158 84.0005H139.5L132.5 104L126 84.0005H103L96.5 104L90.5 84.0005Z" fill="white"/>
<path fill-rule="evenodd" clip-rule="evenodd" d="M174.5 84.0005H204.5L223 145H204.5L200 137H178L174.5 145H155.5L174.5 84.0005ZM197.5 123.5H183L190 99.0005L197.5 123.5Z" fill="white"/>
<path fill-rule="evenodd" clip-rule="evenodd" d="M234 84.0005V145H255V125H256.5C263.692 133.721 267.882 138.271 276 145H335C345.836 140.754 349 132.5 349 130V125C345.355 117.136 342.154 113.131 335 106.5C333.485 103.258 334 101 337.5 101H366V84.0005H323C312.998 85.9975 311 95.5005 311 98.0005V105.5C314.149 113.119 319.5 119 322 121C322 121 322.817 125.28 320 126.5H288C282.453 123.61 281.649 122.276 285 120.5C291.057 116.996 294 108.5 294 105V99.0005C292.267 89.9333 288.713 86.5436 277 84.0005H234ZM255 111.5V99.0005H271L276 105L271 111.5H255Z" fill="white"/>
<path fill-rule="evenodd" clip-rule="evenodd" d="M283 75.0002H304.5V54.5002H306C313.524 62.7943 317.78 67.1703 325.5 74.0002H366V55.0002H336C331.573 55.3752 331.5 51.0002 333 50.5002C334.5 50.0002 342.983 44.2055 344 34.0002V29.5002C342.894 22.0624 335 14.0005 327.5 14.0002C320 13.9998 283 14.0002 283 14.0002V75.0002ZM304.5 40.0002V28.0002H321C325.017 31.6664 325.007 33.3733 325 34.3875C325 34.426 325 34.4636 325 34.5002C325 35.5002 324.721 38.2822 321 40.0002H304.5Z" fill="white"/>
<path fill-rule="evenodd" clip-rule="evenodd" d="M206 75.0002L224.5 14.0002H256.5L273.5 75.0002H255.5L251 66.0002H229L224.5 75.0002H206ZM249 52.0002H233.5L241 28.5002L249 52.0002Z" fill="white"/>
<path d="M87.224 190.592H80.24L79.04 194H76.184L82.16 177.296H85.328L91.304 194H88.424L87.224 190.592ZM86.456 188.36L83.744 180.608L81.008 188.36H86.456ZM112.766 182.288C112.766 183.136 112.566 183.936 112.166 184.688C111.766 185.44 111.126 186.056 110.246 186.536C109.366 187 108.238 187.232 106.862 187.232H103.838V194H101.102V177.32H106.862C108.142 177.32 109.222 177.544 110.102 177.992C110.998 178.424 111.662 179.016 112.094 179.768C112.542 180.52 112.766 181.36 112.766 182.288ZM106.862 185C107.902 185 108.678 184.768 109.19 184.304C109.702 183.824 109.958 183.152 109.958 182.288C109.958 180.464 108.926 179.552 106.862 179.552H103.838V185H106.862ZM125.312 177.32V194H122.576V177.32H125.312ZM158.466 185.432C159.362 185.592 160.122 186.064 160.746 186.848C161.37 187.632 161.682 188.52 161.682 189.512C161.682 190.36 161.458 191.128 161.01 191.816C160.578 192.488 159.946 193.024 159.114 193.424C158.282 193.808 157.314 194 156.21 194H149.538V177.32H155.898C157.034 177.32 158.01 177.512 158.826 177.896C159.642 178.28 160.258 178.8 160.674 179.456C161.09 180.096 161.298 180.816 161.298 181.616C161.298 182.576 161.042 183.376 160.53 184.016C160.018 184.656 159.33 185.128 158.466 185.432ZM152.274 184.328H155.658C156.554 184.328 157.25 184.128 157.746 183.728C158.258 183.312 158.514 182.72 158.514 181.952C158.514 181.2 158.258 180.616 157.746 180.2C157.25 179.768 156.554 179.552 155.658 179.552H152.274V184.328ZM155.97 191.768C156.898 191.768 157.626 191.544 158.154 191.096C158.682 190.648 158.946 190.024 158.946 189.224C158.946 188.408 158.666 187.76 158.106 187.28C157.546 186.8 156.802 186.56 155.874 186.56H152.274V191.768H155.97ZM184.215 177.32L178.695 187.952V194H175.959V187.952L170.415 177.32H173.463L177.327 185.504L181.191 177.32H184.215ZM219.093 182.12C218.661 181.288 218.061 180.664 217.293 180.248C216.525 179.816 215.637 179.6 214.629 179.6C213.525 179.6 212.541 179.848 211.677 180.344C210.813 180.84 210.133 181.544 209.637 182.456C209.157 183.368 208.917 184.424 208.917 185.624C208.917 186.824 209.157 187.888 209.637 188.816C210.133 189.728 210.813 190.432 211.677 190.928C212.541 191.424 213.525 191.672 214.629 191.672C216.117 191.672 217.325 191.256 218.253 190.424C219.181 189.592 219.749 188.464 219.957 187.04H213.693V184.856H222.885V186.992C222.709 188.288 222.245 189.48 221.493 190.568C220.757 191.656 219.789 192.528 218.589 193.184C217.405 193.824 216.085 194.144 214.629 194.144C213.061 194.144 211.629 193.784 210.333 193.064C209.037 192.328 208.005 191.312 207.237 190.016C206.485 188.72 206.109 187.256 206.109 185.624C206.109 183.992 206.485 182.528 207.237 181.232C208.005 179.936 209.037 178.928 210.333 178.208C211.645 177.472 213.077 177.104 214.629 177.104C216.405 177.104 217.981 177.544 219.357 178.424C220.749 179.288 221.757 180.52 222.381 182.12H219.093ZM241.448 194L237.608 187.328H235.52V194H232.784V177.32H238.544C239.824 177.32 240.904 177.544 241.784 177.992C242.68 178.44 243.344 179.04 243.776 179.792C244.224 180.544 244.448 181.384 244.448 182.312C244.448 183.4 244.128 184.392 243.488 185.288C242.864 186.168 241.896 186.768 240.584 187.088L244.712 194H241.448ZM235.52 185.144H238.544C239.568 185.144 240.336 184.888 240.848 184.376C241.376 183.864 241.64 183.176 241.64 182.312C241.64 181.448 241.384 180.776 240.872 180.296C240.36 179.8 239.584 179.552 238.544 179.552H235.52V185.144ZM265.204 190.592H258.22L257.02 194H254.164L260.14 177.296H263.308L269.284 194H266.404L265.204 190.592ZM264.436 188.36L261.724 180.608L258.988 188.36H264.436ZM290.746 182.288C290.746 183.136 290.546 183.936 290.146 184.688C289.746 185.44 289.106 186.056 288.226 186.536C287.346 187 286.218 187.232 284.842 187.232H281.818V194H279.082V177.32H284.842C286.122 177.32 287.202 177.544 288.082 177.992C288.978 178.424 289.642 179.016 290.074 179.768C290.522 180.52 290.746 181.36 290.746 182.288ZM284.842 185C285.882 185 286.658 184.768 287.17 184.304C287.682 183.824 287.938 183.152 287.938 182.288C287.938 180.464 286.906 179.552 284.842 179.552H281.818V185H284.842ZM313.875 177.32V194H311.139V186.704H303.291V194H300.555V177.32H303.291V184.472H311.139V177.32H313.875ZM337.589 197.024L334.661 193.856C333.941 194.064 333.149 194.168 332.285 194.168C330.733 194.168 329.301 193.808 327.989 193.088C326.693 192.352 325.661 191.336 324.893 190.04C324.141 188.728 323.765 187.256 323.765 185.624C323.765 183.992 324.141 182.528 324.893 181.232C325.661 179.936 326.693 178.928 327.989 178.208C329.301 177.472 330.733 177.104 332.285 177.104C333.853 177.104 335.285 177.472 336.581 178.208C337.893 178.928 338.925 179.936 339.677 181.232C340.429 182.528 340.805 183.992 340.805 185.624C340.805 187.16 340.469 188.552 339.797 189.8C339.141 191.032 338.229 192.024 337.061 192.776L341.069 197.024H337.589ZM326.573 185.624C326.573 186.856 326.813 187.944 327.293 188.888C327.789 189.816 328.469 190.536 329.333 191.048C330.197 191.544 331.181 191.792 332.285 191.792C333.389 191.792 334.373 191.544 335.237 191.048C336.101 190.536 336.773 189.816 337.253 188.888C337.749 187.944 337.997 186.856 337.997 185.624C337.997 184.392 337.749 183.312 337.253 182.384C336.773 181.456 336.101 180.744 335.237 180.248C334.373 179.752 333.389 179.504 332.285 179.504C331.181 179.504 330.197 179.752 329.333 180.248C328.469 180.744 327.789 181.456 327.293 182.384C326.813 183.312 326.573 184.392 326.573 185.624ZM353.504 191.792H359.144V194H350.768V177.32H353.504V191.792Z" fill="white"/>
</svg>
